<?xml version="1.0" encoding="iso-8859-1"?>
<!-- Generator: Adobe Illustrator 19.0.0, SVG Export Plug-In . SVG Version: 6.00 Build 0)  -->
<svg version="1.1" id="Capa_1" xmlns="http://www.w3.org/2000/svg" xmlns:xlink="http://www.w3.org/1999/xlink" x="0px" y="0px"
	 viewBox="0 0 512 512" style="enable-background:new 0 0 512 512;" xml:space="preserve">
<path style="fill:#0e90e4;" d="M109.595,281.405L154.559,160H231v76.44L109.595,281.405z"/>
<path style="fill:#0e90e4;" d="M402.405,281.405L281,236.44V160h76.44L402.405,281.405z"/>
<path style="fill:#0e90e4;" d="M256,250c-68.925,0-125-56.075-125-125S187.074,0,256,0c68.925,0,125,56.075,125,125
	S324.925,250,256,250z"/>
<path style="fill:#0e90e4;" d="M256,0v250c68.925,0,125-56.075,125-125S324.925,0,256,0z"/>
<path style="fill:#0e90e4;" d="M147.355,512H52.644c-18.237,0-34.028-13.623-36.731-31.687L0.414,376.712
	c-1.605-10.732,1.534-21.6,8.612-29.815C16.088,338.701,26.337,334,37.145,334h125.709c10.809,0,21.058,4.701,28.119,12.897
	c7.078,8.216,10.217,19.083,8.612,29.815l-15.499,103.6C181.384,498.377,165.593,512,147.355,512z"/>
<path style="fill:#0e90e4;" d="M121.224,454H78.776L39.27,334h121.46L121.224,454z"/>
<path style="fill:#F26101;" d="M100,364c-37.495,0-68-30.505-68-68s30.505-68,68-68s68,30.505,68,68S137.495,364,100,364z"/>
<path style="fill:#0e90e4;" d="M459.355,512h-94.711c-18.237,0-34.028-13.623-36.731-31.687l-15.499-103.601
	c-1.605-10.732,1.533-21.599,8.612-29.815c7.062-8.196,17.311-12.897,28.119-12.897h125.709c10.809,0,21.058,4.701,28.119,12.897
	c7.079,8.216,10.218,19.083,8.612,29.815l-15.499,103.6C493.384,498.377,477.592,512,459.355,512z"/>
<path style="fill:#0e90e4;" d="M433.223,454h-42.447l-39.507-120H472.73L433.223,454z"/>
<path style="fill:#F26101;" d="M412,364c-37.495,0-68-30.505-68-68s30.505-68,68-68s68,30.505,68,68S449.495,364,412,364z"/>
<polygon style="fill:#F26101;" points="245.636,168.933 199.674,122.97 220.887,101.757 245.636,126.506 294.113,78.03 
	315.326,99.243 "/>
<polygon style="fill:#F26101;" points="256,158.569 315.326,99.243 294.113,78.03 256,116.142 "/>
</svg>
