<?xml version="1.0" encoding="iso-8859-1"?>
<!-- Generator: Adobe Illustrator 19.0.0, SVG Export Plug-In . SVG Version: 6.00 Build 0)  -->
<svg version="1.1" id="Capa_1" xmlns="http://www.w3.org/2000/svg" xmlns:xlink="http://www.w3.org/1999/xlink" x="0px" y="0px"
	 viewBox="0 0 512 512" style="enable-background:new 0 0 512 512;" xml:space="preserve">
<path style="fill:#0e90e4;" d="M469.333,42.667H192v-32C192,4.771,187.229,0,181.333,0h-64c-5.896,0-10.667,4.771-10.667,10.667v32
	h-64C19.135,42.667,0,61.802,0,85.333V384c0,23.531,19.135,42.667,42.667,42.667h149.362c-0.46,17.052-3.728,44.306-15.893,57.104
	c-4.469,4.708-9.604,6.896-16.135,6.896c-5.896,0-10.667,4.771-10.667,10.667S154.104,512,160,512h192
	c5.896,0,10.667-4.771,10.667-10.667s-4.771-10.667-10.667-10.667c-6.531,0-11.667-2.188-16.135-6.896
	c-12.165-12.798-15.434-40.052-15.893-57.104h149.362C492.865,426.667,512,407.531,512,384V85.333
	C512,61.802,492.865,42.667,469.333,42.667z"/>
<path style="fill:#0e90e4;" d="M128,117.333v-96h42.667v96c0,5.896,4.771,10.667,10.667,10.667H192l-42.667,56.885L106.667,128
	h10.667C123.229,128,128,123.229,128,117.333z"/>
<path style="fill:#FFFFFF;" d="M42.667,64h64v42.667H85.333c-4.042,0-7.729,2.281-9.542,5.896c-1.802,3.615-1.417,7.938,1.01,11.167
	l64,85.333c2.01,2.688,5.177,4.271,8.531,4.271c3.354,0,6.521-1.583,8.531-4.271l64-85.333c2.427-3.229,2.813-7.552,1.01-11.167
	c-1.813-3.615-5.5-5.896-9.542-5.896H192V64h277.333c11.76,0,21.333,9.573,21.333,21.333V320H21.333V85.333
	C21.333,73.573,30.906,64,42.667,64z"/>
<g>
	<path style="fill:#FFFFFF;" d="M314.271,490.667H197.729c12.882-19.749,15.374-48.188,15.695-64h85.151
		C298.897,442.479,301.389,470.918,314.271,490.667z"/>
	<path style="fill:#FFFFFF;" d="M469.333,405.333H42.667c-11.76,0-21.333-9.573-21.333-21.333v-42.667h469.333V384
		C490.667,395.76,481.094,405.333,469.333,405.333z"/>
</g>
<g>
	<circle style="fill:#0e90e4;" cx="256" cy="373.333" r="21.333"/>
	<path style="fill:#F26101;" d="M285.417,217.281l10.104,2.531l-5.354,8.948c-2.521,4.188-1.854,9.563,1.604,13.021l21.115,21.115
		c3.458,3.448,8.823,4.115,13.021,1.604l8.948-5.354l2.531,10.104c1.177,4.75,5.448,8.083,10.344,8.083h29.875
		c4.896,0,9.167-3.333,10.344-8.083l2.531-10.104l8.948,5.354c4.177,2.5,9.573,1.854,13.021-1.604l21.115-21.115
		c3.458-3.458,4.125-8.833,1.604-13.021l-5.354-8.948l10.104-2.531c4.75-1.177,8.083-5.448,8.083-10.344v-29.875
		c0-4.896-3.333-9.167-8.083-10.344l-10.104-2.531l5.354-8.948c2.521-4.188,1.854-9.563-1.604-13.021l-21.115-21.115
		c-3.458-3.469-8.833-4.115-13.021-1.604l-8.948,5.354l-2.531-10.104c-1.177-4.75-5.448-8.083-10.344-8.083h-29.875
		c-4.896,0-9.167,3.333-10.344,8.083l-2.531,10.104l-8.948-5.354c-4.177-2.5-9.552-1.854-13.021,1.604l-21.115,21.115
		c-3.458,3.458-4.125,8.833-1.604,13.021l5.354,8.948l-10.104,2.531c-4.75,1.177-8.083,5.448-8.083,10.344v29.875
		C277.333,211.833,280.667,216.104,285.417,217.281z"/>
</g>
<path style="fill:#FFFFFF;" d="M416.271,182.792c-3.5-0.865-6.323-3.448-7.5-6.854c-0.615-1.802-1.302-3.531-2.115-5.219
	c-1.573-3.24-1.406-7.052,0.448-10.135l5.49-9.167l-9.344-9.344l-9.167,5.49c-3.073,1.854-6.896,2.031-10.135,0.448
	c-1.688-0.813-3.417-1.5-5.219-2.115c-3.406-1.177-5.99-4-6.854-7.5L369.271,128h-13.208l-2.604,10.396
	c-0.865,3.5-3.448,6.323-6.854,7.5c-1.802,0.615-3.531,1.302-5.219,2.115c-3.26,1.573-7.063,1.406-10.135-0.448l-9.167-5.49
	l-9.344,9.344l5.49,9.167c1.854,3.083,2.021,6.896,0.448,10.135c-0.813,1.688-1.5,3.417-2.115,5.219c-1.177,3.406-4,5.99-7.5,6.854
	l-10.396,2.604v13.208l10.396,2.604c3.5,0.865,6.323,3.448,7.5,6.854c0.615,1.802,1.302,3.531,2.115,5.219
	c1.573,3.24,1.406,7.052-0.448,10.135l-5.49,9.167l9.344,9.344l9.167-5.49c3.073-1.854,6.885-2.021,10.135-0.448
	c1.688,0.813,3.417,1.5,5.219,2.115c3.406,1.177,5.99,4,6.854,7.5L356.063,256h13.208l2.604-10.396c0.865-3.5,3.448-6.323,6.854-7.5
	c1.802-0.615,3.531-1.302,5.219-2.115c3.229-1.583,7.042-1.427,10.135,0.448l9.167,5.49l9.344-9.344l-5.49-9.167
	c-1.854-3.083-2.021-6.896-0.448-10.135c0.813-1.688,1.5-3.417,2.115-5.219c1.177-3.406,4-5.99,7.5-6.854l10.396-2.604v-13.208
	L416.271,182.792z M362.667,213.333c-11.764,0-21.333-9.569-21.333-21.333c0-11.764,9.569-21.333,21.333-21.333
	c11.764,0,21.333,9.569,21.333,21.333C384,203.764,374.431,213.333,362.667,213.333z"/>
<g>
	<path style="fill:#F26101;" d="M74.667,256H224c5.896,0,10.667-4.771,10.667-10.667c0-5.896-4.771-10.667-10.667-10.667H74.667
		c-5.896,0-10.667,4.771-10.667,10.667C64,251.229,68.771,256,74.667,256z"/>
	<path style="fill:#F26101;" d="M74.667,298.667H160c5.896,0,10.667-4.771,10.667-10.667c0-5.896-4.771-10.667-10.667-10.667H74.667
		C68.771,277.333,64,282.104,64,288C64,293.896,68.771,298.667,74.667,298.667z"/>
</g>
<path style="fill:url(#SVGID_1_);" d="M314.249,490.621c-12.857-19.745-15.352-48.154-15.673-63.954h-85.151l63.954,63.954H314.249z
	"/>
<linearGradient id="SVGID_1_" gradientUnits="userSpaceOnUse" x1="-35.701" y1="627.4822" x2="-31.839" y2="623.6202" gradientTransform="matrix(21.3333 0 0 -21.3333 996.3334 13791.667)">
	<stop  offset="0" style="stop-color:#000000;stop-opacity:0"/>
	<stop  offset="1" style="stop-color:#000000;stop-opacity:0"/>
</linearGradient>
<path style="fill:url(#SVGID_1_);" d="M314.249,490.621c-12.857-19.745-15.352-48.154-15.673-63.954h-85.151l63.954,63.954H314.249z
	"/>
<linearGradient id="SVGID_2_" gradientUnits="userSpaceOnUse" x1="-47.6559" y1="640.8846" x2="-22.2407" y2="629.0325" gradientTransform="matrix(21.3333 0 0 -21.3333 996.3334 13791.667)">
	<stop  offset="0" style="stop-color:#FFFFFF;stop-opacity:0"/>
	<stop  offset="1" style="stop-color:#FFFFFF;stop-opacity:0"/>
</linearGradient>
<path style="fill:url(#SVGID_2_);" d="M469.333,42.667H192v-32C192,4.771,187.229,0,181.333,0h-64
	c-5.896,0-10.667,4.771-10.667,10.667v32h-64C19.135,42.667,0,61.802,0,85.333V384c0,23.531,19.135,42.667,42.667,42.667h149.362
	c-0.46,17.052-3.728,44.306-15.893,57.104c-4.469,4.708-9.604,6.896-16.135,6.896c-5.896,0-10.667,4.771-10.667,10.667
	S154.104,512,160,512h192c5.896,0,10.667-4.771,10.667-10.667s-4.771-10.667-10.667-10.667c-6.531,0-11.667-2.188-16.135-6.896
	c-12.165-12.798-15.434-40.052-15.893-57.104h149.362C492.865,426.667,512,407.531,512,384V85.333
	C512,61.802,492.865,42.667,469.333,42.667z"/>
</svg>
